<svg width="25" height="25" viewBox="0 0 25 25" fill="none" xmlns="http://www.w3.org/2000/svg">
<path d="M23.2632 10.5477C23.6773 10.5492 24.0302 10.7178 24.322 11.0537C24.6138 11.3895 24.7588 11.7941 24.7572 12.2673C24.7555 12.7405 24.6076 13.144 24.3134 13.4778C24.0193 13.8116 23.6652 13.9777 23.2511 13.9762L23.0753 13.9756L21.6963 22.8369C21.6323 23.2474 21.4592 23.586 21.1771 23.8529C20.8949 24.1198 20.5741 24.2525 20.2147 24.2513L5.21479 24.1982C4.85542 24.1969 4.53558 24.0618 4.25528 23.793C3.97498 23.5241 3.80431 23.1842 3.74326 22.7733L2.42701 13.9025L2.25123 13.9019C1.83717 13.9004 1.48425 13.7318 1.19247 13.3959C0.900688 13.06 0.755636 12.6555 0.757311 12.1823C0.758987 11.7091 0.906901 11.3056 1.20105 10.9718C1.49521 10.638 1.84931 10.4719 2.26337 10.4733L23.2632 10.5477ZM6.409 21.2024C6.61219 21.1852 6.78246 21.0854 6.91983 20.9028C7.0572 20.7203 7.11848 20.5129 7.10367 20.2807L6.74841 14.708C6.7336 14.4758 6.6464 14.2813 6.4868 14.1245C6.3272 13.9677 6.1458 13.8978 5.94261 13.915C5.73943 13.9321 5.56915 14.0319 5.43179 14.2145C5.29442 14.397 5.23314 14.6044 5.24794 14.8366L5.60321 20.4093C5.61804 20.6326 5.69746 20.8204 5.84145 20.9727C5.98544 21.125 6.1551 21.2015 6.35041 21.2022L6.409 21.2024ZM11.2284 20.3623L11.2481 14.7909C11.249 14.5588 11.1755 14.3576 11.0276 14.1874C10.8798 14.0173 10.7043 13.9318 10.5012 13.9311C10.2981 13.9304 10.122 14.0146 9.97294 14.1837C9.8239 14.3528 9.74897 14.5534 9.74815 14.7856L9.72842 20.357C9.7276 20.5891 9.80111 20.7903 9.94894 20.9604C10.0968 21.1306 10.2723 21.216 10.4754 21.2168C10.6785 21.2175 10.8546 21.1333 11.0036 20.9642C11.1527 20.7951 11.2276 20.5944 11.2284 20.3623ZM15.7284 20.3782L15.7481 14.8068C15.7489 14.5747 15.6754 14.3735 15.5276 14.2034C15.3798 14.0332 15.2043 13.9478 15.0012 13.947C14.798 13.9463 14.6219 14.0305 14.4729 14.1996C14.3239 14.3687 14.2489 14.5694 14.2481 14.8015L14.2284 20.3729C14.2276 20.6051 14.3011 20.8062 14.4489 20.9764C14.5967 21.1465 14.7722 21.232 14.9754 21.2327C15.1785 21.2334 15.3546 21.1492 15.5036 20.9801C15.6526 20.811 15.7276 20.6104 15.7284 20.3782ZM19.8531 20.4598L20.2478 14.8897C20.2643 14.6576 20.2045 14.4498 20.0684 14.2663C19.9323 14.0828 19.7628 13.9818 19.5597 13.9632C19.3567 13.9446 19.1748 14.0132 19.0141 14.1688C18.8534 14.3245 18.7648 14.5184 18.7483 14.7505L18.3536 20.3206C18.3372 20.5526 18.397 20.7604 18.533 20.944C18.6691 21.1275 18.8387 21.2285 19.0417 21.2471L19.1003 21.2473C19.2956 21.248 19.4658 21.1727 19.6109 21.0214C19.756 20.8702 19.8367 20.683 19.8531 20.4598ZM6.36405 4.11282L5.25467 9.62678L3.70781 9.6213L4.91231 3.71928C5.06353 2.9341 5.41345 2.29471 5.96207 1.80111C6.5107 1.30751 7.13657 1.06196 7.83969 1.06445L9.79671 1.07138C9.79754 0.839239 9.87247 0.63861 10.0215 0.469494C10.1705 0.300378 10.3466 0.21618 10.5497 0.216899L15.0497 0.232834C15.2528 0.233553 15.4283 0.318997 15.5762 0.489164C15.724 0.659332 15.7975 0.860486 15.7967 1.09263L17.7537 1.09956C18.4568 1.10205 19.0809 1.35203 19.6261 1.8495C20.1712 2.34697 20.5166 2.98882 20.6622 3.77505L21.8249 9.68546L20.278 9.67998L19.2077 4.1583C19.1232 3.76514 18.9466 3.44308 18.6779 3.19213C18.4093 2.94118 18.0992 2.81508 17.7476 2.81383L15.7906 2.8069C15.7898 3.03904 15.7149 3.23967 15.5658 3.40879C15.4168 3.5779 15.2407 3.6621 15.0376 3.66138L10.5376 3.64545C10.3345 3.64473 10.159 3.55929 10.0112 3.38912C9.86333 3.21895 9.78982 3.0178 9.79064 2.78566L7.83362 2.77873C7.48206 2.77748 7.17108 2.90138 6.90066 3.15042C6.63025 3.39947 6.45137 3.72027 6.36405 4.11282Z" fill="#FFA451"/>
</svg>
